<svg version="1.1" xmlns="http://www.w3.org/2000/svg" style="display: block;" viewBox="0 0 2000 2000" width="500" height="500" preserveAspectRatio="none">
<path transform="translate(0,0)" fill="rgb(254,254,254)" d="M 396.556 719.348 C 429.254 719.718 475.649 720.998 507.545 719.171 C 508.631 730.999 508.018 754.05 508.012 766.614 C 508 790.94 508.452 816.78 507.752 841.001 C 529.383 839.757 553.48 841.359 576.154 840.301 C 576.349 854.706 576.292 869.114 575.981 883.518 C 577.092 882.099 578.225 880.699 579.381 879.316 C 615.202 836.6 679.41 824.125 731.765 835.839 C 760.892 842.357 777.997 853.303 800.038 871.957 C 799.936 861.188 799.946 850.419 800.07 839.651 C 809.757 841.273 829.062 840.811 839.632 840.854 C 863.747 841.116 887.864 840.932 911.972 840.299 C 910.237 884.342 912.059 930.36 911.399 974.505 C 911.153 990.949 912.771 1014.12 911.326 1029.85 C 883.501 1031.07 873.316 1027.53 845.463 1041.27 C 811.241 1058.15 780.326 1089.36 771.975 1127.58 C 770.287 1135.3 772.972 1147.76 770.25 1155.26 C 761.025 1165.39 728.708 1175.13 714.597 1176.54 C 658.947 1182.1 625.23 1169.41 583.051 1135.9 C 582.081 1141.54 591.418 1154.84 587.584 1157.18 C 543.219 1184.2 466.046 1188.54 426.709 1149.66 C 391.29 1114.65 393.08 1055.92 393.196 1009.75 L 393.123 933.75 L 393.477 928.89 C 389.948 924.386 350.003 930.858 345.602 929.162 C 315.088 917.406 279.298 902.128 245.016 916.955 C 227.76 947.677 268.72 954.173 289.694 961.025 C 317.325 970.052 335.348 976.408 358.975 995.049 C 399.653 1027.14 400.374 1095.36 368.967 1133.78 C 345.748 1162.18 305.58 1172.84 270.627 1176.42 C 213.417 1182.53 155.214 1172.03 110.036 1134.69 C 112.476 1127.4 150.149 1062.24 154.865 1058.06 C 160.643 1059.14 176.176 1070.83 183.117 1074.87 C 190.027 1078.95 197.205 1082.55 204.603 1085.65 C 226.608 1094.86 260.587 1102.99 271.445 1074.28 C 270.876 1069.94 269.652 1064.74 268.749 1060.38 C 256.183 1045.86 225.929 1039.19 208.526 1030.76 C 166.653 1010.48 131.786 987.263 132.103 936.499 C 132.655 848.11 225.142 826.215 297.196 832.536 C 313.25 833.945 329.032 838.426 345.091 839.941 C 361.138 841.412 378.105 840.944 394.264 840.975 C 393.36 834.735 393.284 827.29 393.25 820.953 L 393.118 758.634 C 393.117 750.239 391.589 724.366 396.556 719.348 z M 731.526 1081.07 C 773.732 1078.17 805.555 1041.54 802.517 999.344 C 799.479 957.148 762.736 925.451 720.551 928.632 C 678.568 931.798 647.055 968.326 650.079 1010.32 C 653.102 1052.31 689.523 1083.95 731.526 1081.07 z M 538.597 1062.24 C 526.669 1017.67 525.814 970.631 545.744 927.911 C 532.95 927.98 520.157 927.978 507.363 927.908 C 509.354 953.626 507.267 983.906 507.882 1010.13 C 508.221 1024.6 507.048 1043.68 510.82 1057.8 C 512.261 1063.09 515.333 1067.79 519.6 1071.23 C 525.121 1075.73 532.936 1078.95 539.51 1074.92 C 542.747 1069.87 540.691 1067.65 538.597 1062.24 z"/>
<path transform="translate(0,0)" fill="rgb(254,254,254)" d="M 1628.21 832.363 C 1670.47 829.596 1709.19 836.325 1743.65 862.888 C 1747.18 865.604 1749.44 868.878 1753.46 870.979 L 1754.17 870.055 C 1752.06 860.935 1753.14 849.778 1753.49 840.232 C 1762.85 841.297 1782.91 840.843 1792.76 840.864 C 1817.82 841.076 1842.88 840.908 1867.94 840.362 L 1867.82 1027.16 C 1867.83 1073.68 1867.23 1121.75 1868.2 1168.15 C 1830.66 1167.69 1792.53 1168.24 1754.88 1168.05 C 1754.2 1154.86 1753.16 1143.35 1755.39 1130.24 C 1733.98 1151.62 1717.45 1163.83 1687.46 1172.62 C 1647.33 1184.4 1592.46 1176.31 1558.23 1151.84 C 1551.35 1146.89 1544.71 1141.6 1538.34 1136 C 1536.44 1134.3 1528.09 1125.89 1527.29 1125.43 C 1526.04 1127.8 1527.96 1162.46 1528.19 1168.18 C 1420.72 1166.62 1311.15 1169.97 1203.85 1167.93 C 1200.29 1140.25 1211.89 1130.96 1227.15 1109.27 C 1248.25 1075 1277.14 1034.35 1299.9 1000.43 L 1330.1 955.514 C 1335.89 946.982 1343.32 935.393 1349.93 927.958 C 1338.19 928.103 1326.45 927.982 1314.72 927.594 C 1340 897.716 1348.15 881.784 1346.2 841.307 C 1368.36 840.225 1393.97 840.818 1416.49 840.819 L 1539.36 840.761 C 1525.42 865.151 1498.24 902.997 1481.85 927.386 L 1377.75 1081.94 C 1393.73 1080.44 1422.26 1081.56 1439.51 1081.5 C 1456.41 1081.45 1484.35 1080.6 1500.38 1082.08 C 1497.76 1077.45 1496.14 1073.41 1494.46 1068.38 C 1468.43 990.321 1491.16 899.641 1562.82 854.26 C 1584.02 840.838 1603.86 835.868 1628.21 832.363 z M 1685.08 1081.17 C 1727.17 1078.53 1759.17 1042.3 1756.6 1000.2 C 1754.03 958.103 1717.86 926.036 1675.76 928.534 C 1633.55 931.037 1601.39 967.317 1603.97 1009.52 C 1606.54 1051.72 1642.88 1083.82 1685.08 1081.17 z"/>
<path transform="translate(0,0)" fill="rgb(254,226,19)" d="M 1260.19 812.449 C 1288.94 810.743 1324.14 825.407 1321.74 859.468 C 1317.24 923.492 1230.87 945.03 1177.98 944.202 L 1177.99 1158.37 C 1177.99 1170.54 1179.3 1256.88 1176.34 1263.82 L 1175.09 1263.9 C 1165.6 1253.01 1146.48 1223.65 1136.16 1210.13 C 1111.35 1177.6 1094.52 1163.4 1065.35 1136.97 C 1045.83 1117.97 1022.19 1102.44 1009.89 1076.6 C 994.048 1043.33 995.941 1008.78 997.048 973.277 C 1014.89 993.879 1033 1009.91 1056.01 1024.59 C 1090.8 1046.8 1127.52 1067.85 1157.51 1096.52 C 1157.15 1094.14 1156.89 1091.75 1156.73 1089.35 C 1155.59 1071.11 1156.86 1046.88 1156.72 1028.18 L 1156.04 947.592 C 1155.89 932.514 1153.98 899.563 1157.9 886.418 C 1170.06 845.59 1220.85 814.31 1260.19 812.449 z"/>
<path transform="translate(0,0)" fill="rgb(254,226,19)" d="M 937.83 723.926 C 942.74 726.017 947.439 737.865 950.98 743.027 C 961.619 758.54 972.066 774.257 982.743 789.751 C 1001.95 817.627 1023.9 841.239 1048.54 864.37 C 1072.27 886.467 1097.11 905.305 1108.64 937.271 C 1110.91 943.649 1112.65 950.206 1113.84 956.874 C 1115.44 966.104 1120.15 1014.84 1116.88 1021.72 C 1114.92 1021.42 1114.04 1020.88 1112.82 1019.15 C 1104.24 1007.58 1092.47 992.878 1080.67 984.33 C 1053.38 964.544 1022.34 952.266 993.514 934.139 C 987.123 930.16 980.96 925.827 975.054 921.16 C 970.771 917.811 960.566 907.705 957.296 906.486 C 955.437 910.704 955.785 1031.48 955.948 1047 C 956.12 1049.92 956.245 1052.85 956.324 1055.78 C 957.23 1095.23 961.009 1114.61 931.393 1145.29 C 909.494 1168.76 878.965 1180.8 847.019 1181.17 C 820.322 1181.48 795.41 1169.2 797.056 1138.52 C 798.342 1114.56 808.913 1101.77 825.123 1085.65 C 856.639 1054.31 895.283 1052.22 937.268 1053.44 C 936.415 1042.28 937.007 1026.39 937.059 1014.71 L 937.321 943.862 L 936.845 800.345 C 936.801 789.778 935.738 730.066 937.83 723.926 z"/>
</svg>